<?xml version="1.0" encoding="UTF-8" standalone="no"?>
<!-- Created with Inkscape (http://www.inkscape.org/) -->

<svg
   xmlns:dc="http://purl.org/dc/elements/1.1/"
   xmlns:cc="http://creativecommons.org/ns#"
   xmlns:rdf="http://www.w3.org/1999/02/22-rdf-syntax-ns#"
   xmlns:svg="http://www.w3.org/2000/svg"
   xmlns="http://www.w3.org/2000/svg"
   xmlns:sodipodi="http://sodipodi.sourceforge.net/DTD/sodipodi-0.dtd"
   xmlns:inkscape="http://www.inkscape.org/namespaces/inkscape"
   width="930"
   height="480"
   id="svg2"
   version="1.1"
   inkscape:version="0.48.3.1 r9886"
   sodipodi:docname="partial-dendrogram.svg">
  <defs
     id="defs4">
    <marker
       inkscape:stockid="Arrow1Mend"
       orient="auto"
       refY="0"
       refX="0"
       id="Arrow1Mend"
       style="overflow:visible">
      <path
         id="path3721"
         d="M 0,0 5,-5 -12.5,0 5,5 0,0 z"
         style="fill-rule:evenodd;stroke:#000000;stroke-width:1pt;marker-start:none"
         transform="matrix(-0.4,0,0,-0.4,-4,0)"
         inkscape:connector-curvature="0" />
    </marker>
    <marker
       inkscape:stockid="Arrow1Lend"
       orient="auto"
       refY="0"
       refX="0"
       id="Arrow1Lend"
       style="overflow:visible">
      <path
         id="path3715"
         d="M 0,0 5,-5 -12.5,0 5,5 0,0 z"
         style="fill-rule:evenodd;stroke:#000000;stroke-width:1pt;marker-start:none"
         transform="matrix(-0.8,0,0,-0.8,-10,0)"
         inkscape:connector-curvature="0" />
    </marker>
    <inkscape:perspective
       sodipodi:type="inkscape:persp3d"
       inkscape:vp_x="0 : 526.18109 : 1"
       inkscape:vp_y="0 : 1000 : 0"
       inkscape:vp_z="744.09448 : 526.18109 : 1"
       inkscape:persp3d-origin="372.04724 : 350.78739 : 1"
       id="perspective10" />
    <inkscape:perspective
       id="perspective2828"
       inkscape:persp3d-origin="0.5 : 0.33333333 : 1"
       inkscape:vp_z="1 : 0.5 : 1"
       inkscape:vp_y="0 : 1000 : 0"
       inkscape:vp_x="0 : 0.5 : 1"
       sodipodi:type="inkscape:persp3d" />
    <inkscape:perspective
       id="perspective2828-1"
       inkscape:persp3d-origin="0.5 : 0.33333333 : 1"
       inkscape:vp_z="1 : 0.5 : 1"
       inkscape:vp_y="0 : 1000 : 0"
       inkscape:vp_x="0 : 0.5 : 1"
       sodipodi:type="inkscape:persp3d" />
    <inkscape:perspective
       id="perspective2828-16"
       inkscape:persp3d-origin="0.5 : 0.33333333 : 1"
       inkscape:vp_z="1 : 0.5 : 1"
       inkscape:vp_y="0 : 1000 : 0"
       inkscape:vp_x="0 : 0.5 : 1"
       sodipodi:type="inkscape:persp3d" />
    <inkscape:perspective
       id="perspective2897"
       inkscape:persp3d-origin="0.5 : 0.33333333 : 1"
       inkscape:vp_z="1 : 0.5 : 1"
       inkscape:vp_y="0 : 1000 : 0"
       inkscape:vp_x="0 : 0.5 : 1"
       sodipodi:type="inkscape:persp3d" />
    <inkscape:perspective
       id="perspective2897-9"
       inkscape:persp3d-origin="0.5 : 0.33333333 : 1"
       inkscape:vp_z="1 : 0.5 : 1"
       inkscape:vp_y="0 : 1000 : 0"
       inkscape:vp_x="0 : 0.5 : 1"
       sodipodi:type="inkscape:persp3d" />
    <inkscape:perspective
       id="perspective2897-3"
       inkscape:persp3d-origin="0.5 : 0.33333333 : 1"
       inkscape:vp_z="1 : 0.5 : 1"
       inkscape:vp_y="0 : 1000 : 0"
       inkscape:vp_x="0 : 0.5 : 1"
       sodipodi:type="inkscape:persp3d" />
    <inkscape:perspective
       id="perspective5665"
       inkscape:persp3d-origin="0.5 : 0.33333333 : 1"
       inkscape:vp_z="1 : 0.5 : 1"
       inkscape:vp_y="0 : 1000 : 0"
       inkscape:vp_x="0 : 0.5 : 1"
       sodipodi:type="inkscape:persp3d" />
    <inkscape:perspective
       id="perspective5690"
       inkscape:persp3d-origin="0.5 : 0.33333333 : 1"
       inkscape:vp_z="1 : 0.5 : 1"
       inkscape:vp_y="0 : 1000 : 0"
       inkscape:vp_x="0 : 0.5 : 1"
       sodipodi:type="inkscape:persp3d" />
    <inkscape:perspective
       id="perspective5715"
       inkscape:persp3d-origin="0.5 : 0.33333333 : 1"
       inkscape:vp_z="1 : 0.5 : 1"
       inkscape:vp_y="0 : 1000 : 0"
       inkscape:vp_x="0 : 0.5 : 1"
       sodipodi:type="inkscape:persp3d" />
    <inkscape:perspective
       id="perspective5740"
       inkscape:persp3d-origin="0.5 : 0.33333333 : 1"
       inkscape:vp_z="1 : 0.5 : 1"
       inkscape:vp_y="0 : 1000 : 0"
       inkscape:vp_x="0 : 0.5 : 1"
       sodipodi:type="inkscape:persp3d" />
  </defs>
  <sodipodi:namedview
     id="base"
     pagecolor="#ffffff"
     bordercolor="#666666"
     borderopacity="1.0"
     inkscape:pageopacity="0.0"
     inkscape:pageshadow="2"
     inkscape:zoom="0.49497475"
     inkscape:cx="867.28179"
     inkscape:cy="396.38164"
     inkscape:document-units="px"
     inkscape:current-layer="layer1"
     showgrid="false"
     inkscape:window-width="1213"
     inkscape:window-height="948"
     inkscape:window-x="65"
     inkscape:window-y="25"
     inkscape:window-maximized="0">
    <inkscape:grid
       type="xygrid"
       id="grid2881"
       empspacing="5"
       visible="true"
       enabled="true"
       snapvisiblegridlinesonly="true" />
  </sodipodi:namedview>
  <metadata
     id="metadata7">
    <rdf:RDF>
      <cc:Work
         rdf:about="">
        <dc:format>image/svg+xml</dc:format>
        <dc:type
           rdf:resource="http://purl.org/dc/dcmitype/StillImage" />
        <dc:title />
      </cc:Work>
    </rdf:RDF>
  </metadata>
  <g
     inkscape:label="Layer 1"
     inkscape:groupmode="layer"
     id="layer1"
     transform="translate(0,-572.36218)">
    <path
       style="fill:none;stroke:#000000;stroke-width:1px;stroke-linecap:butt;stroke-linejoin:miter;stroke-opacity:1"
       d="m 17.5,1017.3622 0,-20 40,0 0,20"
       id="path3023"
       inkscape:connector-curvature="0"
       sodipodi:nodetypes="cccc" />
    <path
       style="fill:none;stroke:#000000;stroke-width:1px;stroke-linecap:butt;stroke-linejoin:miter;stroke-opacity:1"
       d="m 37.5,997.3622 0,-20.00002 40,0 0,40.00002"
       id="path3025"
       inkscape:connector-curvature="0"
       sodipodi:nodetypes="cccc" />
    <path
       style="fill:none;stroke:#000000;stroke-width:1px;stroke-linecap:butt;stroke-linejoin:miter;stroke-opacity:1"
       d="m 57.5,977.36218 0,-20 40,0 0,60.00002"
       id="path3027"
       inkscape:connector-curvature="0"
       sodipodi:nodetypes="cccc" />
    <text
       xml:space="preserve"
       style="font-size:40px;font-style:normal;font-weight:normal;line-height:125%;letter-spacing:0px;word-spacing:0px;fill:#000000;fill-opacity:1;stroke:none;font-family:Sans"
       x="78.571426"
       y="982.14288"
       id="text3033"
       sodipodi:linespacing="125%"
       transform="translate(0,52.36218)"><tspan
         sodipodi:role="line"
         id="tspan3035"
         x="78.571426"
         y="982.14288" /></text>
    <text
       xml:space="preserve"
       style="font-size:10px;font-style:normal;font-variant:normal;font-weight:normal;font-stretch:normal;line-height:125%;letter-spacing:0px;word-spacing:0px;fill:#000000;fill-opacity:1;stroke:none;font-family:LMRoman10;-inkscape-font-specification:LMRoman10"
       x="72.5"
       y="1027.3622"
       id="text3029-2"
       sodipodi:linespacing="125%"><tspan
         sodipodi:role="line"
         id="tspan3031-8"
         x="72.5"
         y="1027.3622"
         style="font-size:10px;font-style:normal;font-variant:normal;font-weight:normal;font-stretch:normal;font-family:LMRoman10;-inkscape-font-specification:LMRoman10">93</tspan></text>
    <text
       xml:space="preserve"
       style="font-size:10px;font-style:normal;font-variant:normal;font-weight:normal;font-stretch:normal;line-height:125%;letter-spacing:0px;word-spacing:0px;fill:#000000;fill-opacity:1;stroke:none;font-family:LMRoman10;-inkscape-font-specification:LMRoman10"
       x="52.5"
       y="1027.3622"
       id="text3029-2-7"
       sodipodi:linespacing="125%"
       inkscape:transform-center-x="8.442"
       inkscape:transform-center-y="11.136003"><tspan
         sodipodi:role="line"
         id="tspan3031-8-4"
         x="52.5"
         y="1027.3622"
         style="font-size:10px;font-style:normal;font-variant:normal;font-weight:normal;font-stretch:normal;font-family:LMRoman10;-inkscape-font-specification:LMRoman10">79</tspan></text>
    <text
       xml:space="preserve"
       style="font-size:10px;font-style:normal;font-variant:normal;font-weight:normal;font-stretch:normal;line-height:125%;letter-spacing:0px;word-spacing:0px;fill:#000000;fill-opacity:1;stroke:none;font-family:LMRoman10;-inkscape-font-specification:LMRoman10"
       x="87.5"
       y="1027.3622"
       id="text3029-2-5"
       sodipodi:linespacing="125%"><tspan
         sodipodi:role="line"
         id="tspan3031-8-6"
         x="87.5"
         y="1027.3622"
         style="font-size:10px;font-style:normal;font-variant:normal;font-weight:normal;font-stretch:normal;font-family:LMRoman10;-inkscape-font-specification:LMRoman10">146</tspan></text>
    <path
       style="fill:none;stroke:#000000;stroke-width:1px;stroke-linecap:butt;stroke-linejoin:miter;stroke-opacity:1"
       d="m 77.5,957.36218 0,-20 40,0 0,80.00002"
       id="path3049"
       inkscape:connector-curvature="0"
       sodipodi:nodetypes="cccc" />
    <text
       xml:space="preserve"
       style="font-size:10px;font-style:normal;font-variant:normal;font-weight:normal;font-stretch:normal;line-height:125%;letter-spacing:0px;word-spacing:0px;fill:#000000;fill-opacity:1;stroke:none;font-family:LMRoman10;-inkscape-font-specification:LMRoman10"
       x="112.5"
       y="1027.3622"
       id="text3029-2-5-2"
       sodipodi:linespacing="125%"><tspan
         sodipodi:role="line"
         id="tspan3031-8-6-5"
         x="112.5"
         y="1027.3622"
         style="font-size:10px;font-style:normal;font-variant:normal;font-weight:normal;font-stretch:normal;font-family:LMRoman10;-inkscape-font-specification:LMRoman10">64</tspan></text>
    <path
       style="fill:none;stroke:#000000;stroke-width:1px;stroke-linecap:butt;stroke-linejoin:miter;stroke-opacity:1"
       d="m 97.5,937.36218 0,-20 40,0 0,100.00002"
       id="path3072"
       inkscape:connector-curvature="0"
       sodipodi:nodetypes="cccc" />
    <text
       xml:space="preserve"
       style="font-size:10px;font-style:normal;font-variant:normal;font-weight:normal;font-stretch:normal;line-height:125%;letter-spacing:0px;word-spacing:0px;fill:#000000;fill-opacity:1;stroke:none;font-family:LMRoman10;-inkscape-font-specification:LMRoman10"
       x="127.5"
       y="1027.3622"
       id="text3029-2-5-2-9"
       sodipodi:linespacing="125%"><tspan
         sodipodi:role="line"
         id="tspan3031-8-6-5-4"
         x="127.5"
         y="1027.3622"
         style="font-size:10px;font-style:normal;font-variant:normal;font-weight:normal;font-stretch:normal;font-family:LMRoman10;-inkscape-font-specification:LMRoman10">138</tspan></text>
    <path
       style="fill:none;stroke:#000000;stroke-width:1px;stroke-linecap:butt;stroke-linejoin:miter;stroke-opacity:1"
       d="m 117.5,917.36218 0,-20 40,0 0,120.00002"
       id="path3095"
       inkscape:connector-curvature="0"
       sodipodi:nodetypes="cccc" />
    <path
       style="fill:none;stroke:#000000;stroke-width:1px;stroke-linecap:butt;stroke-linejoin:miter;stroke-opacity:1"
       d="m 137.5,897.36218 0,-20 40,0 0,140.00002"
       id="path3118"
       inkscape:connector-curvature="0"
       sodipodi:nodetypes="cccc" />
    <text
       xml:space="preserve"
       style="font-size:10px;font-style:normal;font-variant:normal;font-weight:normal;font-stretch:normal;line-height:125%;letter-spacing:0px;word-spacing:0px;fill:#000000;fill-opacity:1;stroke:none;font-family:LMRoman10;-inkscape-font-specification:LMRoman10"
       x="172.5"
       y="1027.3622"
       id="text3029-2-5-2-9-5-3"
       sodipodi:linespacing="125%"><tspan
         sodipodi:role="line"
         id="tspan3031-8-6-5-4-4-4"
         x="172.5"
         y="1027.3622"
         style="font-size:10px;font-style:normal;font-variant:normal;font-weight:normal;font-stretch:normal;font-family:LMRoman10;-inkscape-font-specification:LMRoman10">4</tspan></text>
    <path
       style="fill:none;stroke:#000000;stroke-width:1px;stroke-linecap:butt;stroke-linejoin:miter;stroke-opacity:1"
       d="m 157.5,877.36218 0,-20 40,0 0,160.00002"
       id="path3141"
       inkscape:connector-curvature="0"
       sodipodi:nodetypes="cccc" />
    <text
       xml:space="preserve"
       style="font-size:10px;font-style:normal;font-variant:normal;font-weight:normal;font-stretch:normal;line-height:125%;letter-spacing:0px;word-spacing:0px;fill:#000000;fill-opacity:1;stroke:none;font-family:LMRoman10;-inkscape-font-specification:LMRoman10"
       x="192.5"
       y="1027.3622"
       id="text3029-2-5-2-9-5-3-6"
       sodipodi:linespacing="125%"><tspan
         sodipodi:role="line"
         id="tspan3031-8-6-5-4-4-4-8"
         x="192.5"
         y="1027.3622"
         style="font-size:10px;font-style:normal;font-variant:normal;font-weight:normal;font-stretch:normal;font-family:LMRoman10;-inkscape-font-specification:LMRoman10">60</tspan></text>
    <path
       style="fill:none;stroke:#000000;stroke-width:1px;stroke-linecap:butt;stroke-linejoin:miter;stroke-opacity:1"
       d="m 217.5,1017.3622 0,-20 40,0 0,20"
       id="path3164"
       inkscape:connector-curvature="0" />
    <text
       xml:space="preserve"
       style="font-size:10px;font-style:normal;font-variant:normal;font-weight:normal;font-stretch:normal;line-height:125%;letter-spacing:0px;word-spacing:0px;fill:#000000;fill-opacity:1;stroke:none;font-family:LMRoman10;-inkscape-font-specification:LMRoman10"
       x="212.5"
       y="1027.3622"
       id="text3029-2-5-2-9-5-3-6-5"
       sodipodi:linespacing="125%"><tspan
         sodipodi:role="line"
         id="tspan3031-8-6-5-4-4-4-8-5"
         x="212.5"
         y="1027.3622"
         style="font-size:10px;font-style:normal;font-variant:normal;font-weight:normal;font-stretch:normal;font-family:LMRoman10;-inkscape-font-specification:LMRoman10">84</tspan></text>
    <text
       xml:space="preserve"
       style="font-size:10px;font-style:normal;font-variant:normal;font-weight:normal;font-stretch:normal;line-height:125%;letter-spacing:0px;word-spacing:0px;fill:#000000;fill-opacity:1;stroke:none;font-family:LMRoman10;-inkscape-font-specification:LMRoman10"
       x="252.5"
       y="1027.3622"
       id="text3029-2-5-2-9-5-3-6-5-6"
       sodipodi:linespacing="125%"><tspan
         sodipodi:role="line"
         id="tspan3031-8-6-5-4-4-4-8-5-4"
         x="252.5"
         y="1027.3622"
         style="font-size:10px;font-style:normal;font-variant:normal;font-weight:normal;font-stretch:normal;font-family:LMRoman10;-inkscape-font-specification:LMRoman10">92</tspan></text>
    <path
       style="fill:none;stroke:#000000;stroke-width:1px;stroke-linecap:butt;stroke-linejoin:miter;stroke-opacity:1"
       d="m 237.5,997.3622 0,-20.00002 40,0 0,40.00002"
       id="path3208"
       inkscape:connector-curvature="0" />
    <text
       xml:space="preserve"
       style="font-size:10px;font-style:normal;font-variant:normal;font-weight:normal;font-stretch:normal;line-height:125%;letter-spacing:0px;word-spacing:0px;fill:#000000;fill-opacity:1;stroke:none;font-family:LMRoman10;-inkscape-font-specification:LMRoman10"
       x="272.5"
       y="1027.3622"
       id="text3029-2-5-2-9-5-3-6-5-6-3"
       sodipodi:linespacing="125%"><tspan
         sodipodi:role="line"
         id="tspan3031-8-6-5-4-4-4-8-5-4-7"
         x="272.5"
         y="1027.3622"
         style="font-size:10px;font-style:normal;font-variant:normal;font-weight:normal;font-stretch:normal;font-family:LMRoman10;-inkscape-font-specification:LMRoman10">31</tspan></text>
    <path
       style="fill:none;stroke:#000000;stroke-width:1px;stroke-linecap:butt;stroke-linejoin:miter;stroke-opacity:1"
       d="m 257.5,977.36218 0,-140 -80,0 0,20"
       id="path3231"
       inkscape:connector-curvature="0" />
    <path
       style="fill:none;stroke:#000000;stroke-width:1px;stroke-linecap:butt;stroke-linejoin:miter;stroke-opacity:1"
       d="m 297.5,1017.3622 0,-20 40,0 0,20"
       id="path3233"
       inkscape:connector-curvature="0" />
    <path
       style="fill:none;stroke:#000000;stroke-width:1px;stroke-linecap:butt;stroke-linejoin:miter;stroke-opacity:1"
       d="m 217.5,837.36218 0,-20 100,0 0,180.00002"
       id="path3277"
       inkscape:connector-curvature="0" />
    <path
       style="fill:none;stroke:#000000;stroke-width:1px;stroke-linecap:butt;stroke-linejoin:miter;stroke-opacity:1"
       d="m 442.5,1017.3622 0,-20 40,0 0,20"
       id="path3279"
       inkscape:connector-curvature="0" />
    <text
       xml:space="preserve"
       style="font-size:10px;font-style:normal;font-variant:normal;font-weight:normal;font-stretch:normal;line-height:125%;letter-spacing:0px;word-spacing:0px;fill:#000000;fill-opacity:1;stroke:none;font-family:LMRoman10;-inkscape-font-specification:LMRoman10"
       x="477.5"
       y="1027.3622"
       id="text3029-2-5-2-9-5-3-6-5-6-3-3-4-3-5"
       sodipodi:linespacing="125%"><tspan
         sodipodi:role="line"
         id="tspan3031-8-6-5-4-4-4-8-5-4-7-8-0-3-4"
         x="477.5"
         y="1027.3622"
         style="font-size:10px;font-style:normal;font-variant:normal;font-weight:normal;font-stretch:normal;font-family:LMRoman10;-inkscape-font-specification:LMRoman10">27</tspan></text>
    <path
       style="fill:none;stroke:#000000;stroke-width:1px;stroke-linecap:butt;stroke-linejoin:miter;stroke-opacity:1"
       d="m 462.5,997.3622 0,-20.00004 40,0 0,40.00004"
       id="path3323"
       inkscape:connector-curvature="0" />
    <text
       xml:space="preserve"
       style="font-size:10px;font-style:normal;font-variant:normal;font-weight:normal;font-stretch:normal;line-height:125%;letter-spacing:0px;word-spacing:0px;fill:#000000;fill-opacity:1;stroke:none;font-family:LMRoman10;-inkscape-font-specification:LMRoman10"
       x="497.5"
       y="1027.3622"
       id="text3029-2-5-2-9-5-3-6-5-6-3-3-4-3-5-4"
       sodipodi:linespacing="125%"><tspan
         sodipodi:role="line"
         id="tspan3031-8-6-5-4-4-4-8-5-4-7-8-0-3-4-6"
         x="497.5"
         y="1027.3622"
         style="font-size:10px;font-style:normal;font-variant:normal;font-weight:normal;font-stretch:normal;font-family:LMRoman10;-inkscape-font-specification:LMRoman10">13</tspan></text>
    <path
       style="fill:none;stroke:#000000;stroke-width:1px;stroke-linecap:butt;stroke-linejoin:miter;stroke-opacity:1"
       d="m 482.5,977.36216 0,-20 40,0 0,60.00004"
       id="path3346"
       inkscape:connector-curvature="0" />
    <text
       xml:space="preserve"
       style="font-size:10px;font-style:normal;font-variant:normal;font-weight:normal;font-stretch:normal;line-height:125%;letter-spacing:0px;word-spacing:0px;fill:#000000;fill-opacity:1;stroke:none;font-family:LMRoman10;-inkscape-font-specification:LMRoman10"
       x="517.5"
       y="1027.3622"
       id="text3029-2-5-2-9-5-3-6-5-6-3-3-4-3-5-4-4"
       sodipodi:linespacing="125%"><tspan
         sodipodi:role="line"
         id="tspan3031-8-6-5-4-4-4-8-5-4-7-8-0-3-4-6-4"
         x="517.5"
         y="1027.3622"
         style="font-size:10px;font-style:normal;font-variant:normal;font-weight:normal;font-stretch:normal;font-family:LMRoman10;-inkscape-font-specification:LMRoman10">41</tspan></text>
    <text
       xml:space="preserve"
       style="font-size:10px;font-style:normal;font-variant:normal;font-weight:normal;font-stretch:normal;line-height:125%;letter-spacing:0px;word-spacing:0px;fill:#000000;fill-opacity:1;stroke:none;font-family:LMRoman10;-inkscape-font-specification:LMRoman10"
       x="537.5"
       y="1027.3622"
       id="text3029-2-5-2-9-5-3-6-5-6-3-3-4-3-5-4-4-5"
       sodipodi:linespacing="125%"><tspan
         sodipodi:role="line"
         id="tspan3031-8-6-5-4-4-4-8-5-4-7-8-0-3-4-6-4-9"
         x="537.5"
         y="1027.3622"
         style="font-size:10px;font-style:normal;font-variant:normal;font-weight:normal;font-stretch:normal;font-family:LMRoman10;-inkscape-font-specification:LMRoman10">61</tspan></text>
    <text
       xml:space="preserve"
       style="font-size:10px;font-style:normal;font-variant:normal;font-weight:normal;font-stretch:normal;line-height:125%;letter-spacing:0px;word-spacing:0px;fill:#000000;fill-opacity:1;stroke:none;font-family:LMRoman10;-inkscape-font-specification:LMRoman10"
       x="572.5"
       y="1027.3622"
       id="text3029-2-5-2-9-5-3-6-5-6-3-3-4-3-5-4-4-5-2"
       sodipodi:linespacing="125%"><tspan
         sodipodi:role="line"
         id="tspan3031-8-6-5-4-4-4-8-5-4-7-8-0-3-4-6-4-9-8"
         x="572.5"
         y="1027.3622"
         style="font-size:10px;font-style:normal;font-variant:normal;font-weight:normal;font-stretch:normal;font-family:LMRoman10;-inkscape-font-specification:LMRoman10">120</tspan></text>
    <path
       style="fill:none;stroke:#000000;stroke-width:1px;stroke-linecap:butt;stroke-linejoin:miter;stroke-opacity:1"
       d="m 542.5,1017.3622 0,-20 40,0 0,20"
       id="path3413"
       inkscape:connector-curvature="0" />
    <path
       style="fill:none;stroke:#000000;stroke-width:1px;stroke-linecap:butt;stroke-linejoin:miter;stroke-opacity:1"
       d="m 562.5,997.3622 0,-60.00004 -60,0 0,20"
       id="path3415"
       inkscape:connector-curvature="0" />
    <path
       style="fill:none;stroke:#000000;stroke-width:1px;stroke-linecap:butt;stroke-linejoin:miter;stroke-opacity:1"
       d="m 532.5,937.36216 0,-20 70,0 0,100.00004"
       id="path3417"
       inkscape:connector-curvature="0" />
    <text
       xml:space="preserve"
       style="font-size:10px;font-style:normal;font-variant:normal;font-weight:normal;font-stretch:normal;line-height:125%;letter-spacing:0px;word-spacing:0px;fill:#000000;fill-opacity:1;stroke:none;font-family:LMRoman10;-inkscape-font-specification:LMRoman10"
       x="597.5"
       y="1027.3622"
       id="text3029-2-5-2-9-5-3-6-5-6-3-3-4-3-5-4-4-5-2-4"
       sodipodi:linespacing="125%"><tspan
         sodipodi:role="line"
         id="tspan3031-8-6-5-4-4-4-8-5-4-7-8-0-3-4-6-4-9-8-7"
         x="597.5"
         y="1027.3622"
         style="font-size:10px;font-style:normal;font-variant:normal;font-weight:normal;font-stretch:normal;font-family:LMRoman10;-inkscape-font-specification:LMRoman10">72</tspan></text>
    <path
       style="fill:none;stroke:#000000;stroke-width:1px;stroke-linecap:butt;stroke-linejoin:miter;stroke-opacity:1"
       d="m 567.5,917.36216 0,-20 55,0 0,120.00004"
       id="path3440"
       inkscape:connector-curvature="0" />
    <text
       xml:space="preserve"
       style="font-size:10px;font-style:normal;font-variant:normal;font-weight:normal;font-stretch:normal;line-height:125%;letter-spacing:0px;word-spacing:0px;fill:#000000;fill-opacity:1;stroke:none;font-family:LMRoman10;-inkscape-font-specification:LMRoman10"
       x="612.5"
       y="1027.3622"
       id="text3029-2-5-2-9-5-3-6-5-6-3-3-4-3-5-4-4-5-2-4-5"
       sodipodi:linespacing="125%"><tspan
         sodipodi:role="line"
         id="tspan3031-8-6-5-4-4-4-8-5-4-7-8-0-3-4-6-4-9-8-7-1"
         x="612.5"
         y="1027.3622"
         style="font-size:10px;font-style:normal;font-variant:normal;font-weight:normal;font-stretch:normal;font-family:LMRoman10;-inkscape-font-specification:LMRoman10">119</tspan></text>
    <path
       style="fill:none;stroke:#000000;stroke-width:1px;stroke-linecap:butt;stroke-linejoin:miter;stroke-opacity:1"
       d="m 592.5,897.36216 0,-20 50,0 0,140.00004"
       id="path3463"
       inkscape:connector-curvature="0" />
    <path
       style="fill:none;stroke:#000000;stroke-width:1px;stroke-linecap:butt;stroke-linejoin:miter;stroke-opacity:1"
       d="m 617.5,877.36216 0,-20 45,0 0,160.00004"
       id="path3486"
       inkscape:connector-curvature="0" />
    <text
       xml:space="preserve"
       style="font-size:10px;font-style:normal;font-variant:normal;font-weight:normal;font-stretch:normal;line-height:125%;letter-spacing:0px;word-spacing:0px;fill:#000000;fill-opacity:1;stroke:none;font-family:LMRoman10;-inkscape-font-specification:LMRoman10"
       x="657.5"
       y="1027.3622"
       id="text3029-2-5-2-9-5-3-6-5-6-3-3-4-3-5-4-4-5-2-4-5-0-6"
       sodipodi:linespacing="125%"><tspan
         sodipodi:role="line"
         id="tspan3031-8-6-5-4-4-4-8-5-4-7-8-0-3-4-6-4-9-8-7-1-1-8"
         x="657.5"
         y="1027.3622"
         style="font-size:10px;font-style:normal;font-variant:normal;font-weight:normal;font-stretch:normal;font-family:LMRoman10;-inkscape-font-specification:LMRoman10">115</tspan></text>
    <path
       style="fill:none;stroke:#000000;stroke-width:1px;stroke-linecap:butt;stroke-linejoin:miter;stroke-opacity:1"
       d="m 687.5,1017.3622 0,-20 40,0 0,20"
       id="path3509"
       inkscape:connector-curvature="0" />
    <text
       xml:space="preserve"
       style="font-size:10px;font-style:normal;font-variant:normal;font-weight:normal;font-stretch:normal;line-height:125%;letter-spacing:0px;word-spacing:0px;fill:#000000;fill-opacity:1;stroke:none;font-family:LMRoman10;-inkscape-font-specification:LMRoman10"
       x="682.5"
       y="1027.3622"
       id="text3029-2-5-2-9-5-3-6-5-6-3-3-4-3-5-4-4-5-2-4-5-0-6-8"
       sodipodi:linespacing="125%"><tspan
         sodipodi:role="line"
         id="tspan3031-8-6-5-4-4-4-8-5-4-7-8-0-3-4-6-4-9-8-7-1-1-8-0"
         x="682.5"
         y="1027.3622"
         style="font-size:10px;font-style:normal;font-variant:normal;font-weight:normal;font-stretch:normal;font-family:LMRoman10;-inkscape-font-specification:LMRoman10">37</tspan></text>
    <path
       style="fill:none;stroke:#000000;stroke-width:1px;stroke-linecap:butt;stroke-linejoin:miter;stroke-opacity:1"
       d="m 637.5,857.36216 0,-20 70,0 0,160.00004"
       id="path3553"
       inkscape:connector-curvature="0" />
    <path
       style="fill:none;stroke:#000000;stroke-width:1px;stroke-linecap:butt;stroke-linejoin:miter;stroke-opacity:1"
       d="m 747.5,1017.3622 0,-20 40,0 0,20"
       id="path3509-8"
       inkscape:connector-curvature="0" />
    <text
       xml:space="preserve"
       style="font-size:10px;font-style:normal;font-variant:normal;font-weight:normal;font-stretch:normal;line-height:125%;letter-spacing:0px;word-spacing:0px;fill:#000000;fill-opacity:1;stroke:none;font-family:LMRoman10;-inkscape-font-specification:LMRoman10"
       x="782.5"
       y="1027.3622"
       id="text3029-2-5-2-9-5-3-6-5-6-3-3-4-3-5-4-4-5-2-4-5-0-6-8-3-6"
       sodipodi:linespacing="125%"><tspan
         sodipodi:role="line"
         id="tspan3031-8-6-5-4-4-4-8-5-4-7-8-0-3-4-6-4-9-8-7-1-1-8-0-9-4"
         x="782.5"
         y="1027.3622"
         style="font-size:10px;font-style:normal;font-variant:normal;font-weight:normal;font-stretch:normal;font-family:LMRoman10;-inkscape-font-specification:LMRoman10">77</tspan></text>
    <path
       style="fill:none;stroke:#000000;stroke-width:1px;stroke-linecap:butt;stroke-linejoin:miter;stroke-opacity:1"
       d="m 672.5,837.36216 0,-20 95,0 0,180.00004"
       id="path3585"
       inkscape:connector-curvature="0" />
    <path
       style="fill:none;stroke:#000000;stroke-width:1px;stroke-linecap:butt;stroke-linejoin:miter;stroke-opacity:1"
       d="m 267.5,817.36218 0,-20 90,0 0,220.00002"
       id="path3587"
       inkscape:connector-curvature="0" />
    <text
       xml:space="preserve"
       style="font-size:10px;font-style:normal;font-variant:normal;font-weight:normal;font-stretch:normal;line-height:125%;letter-spacing:0px;word-spacing:0px;fill:#000000;fill-opacity:1;stroke:none;font-family:LMRoman10;-inkscape-font-specification:LMRoman10"
       x="352.5"
       y="1027.3622"
       id="text3029-2-5-2-9-5-3-6-5-6-3-3-4-38"
       sodipodi:linespacing="125%"><tspan
         sodipodi:role="line"
         id="tspan3031-8-6-5-4-4-4-8-5-4-7-8-0-7"
         x="352.5"
         y="1027.3622"
         style="font-size:10px;font-style:normal;font-variant:normal;font-weight:normal;font-stretch:normal;font-family:LMRoman10;-inkscape-font-specification:LMRoman10">30</tspan></text>
    <path
       style="fill:none;stroke:#000000;stroke-width:1px;stroke-linecap:butt;stroke-linejoin:miter;stroke-opacity:1"
       d="m 312.5,797.36218 0,-20 65,0 0,240.00002"
       id="path3610"
       inkscape:connector-curvature="0" />
    <text
       xml:space="preserve"
       style="font-size:10px;font-style:normal;font-variant:normal;font-weight:normal;font-stretch:normal;line-height:125%;letter-spacing:0px;word-spacing:0px;fill:#000000;fill-opacity:1;stroke:none;font-family:LMRoman10;-inkscape-font-specification:LMRoman10"
       x="372.5"
       y="1027.3622"
       id="text3029-2-5-2-9-5-3-6-5-6-3-3-4-38-4"
       sodipodi:linespacing="125%"><tspan
         sodipodi:role="line"
         id="tspan3031-8-6-5-4-4-4-8-5-4-7-8-0-7-5"
         x="372.5"
         y="1027.3622"
         style="font-size:10px;font-style:normal;font-variant:normal;font-weight:normal;font-stretch:normal;font-family:LMRoman10;-inkscape-font-specification:LMRoman10">67</tspan></text>
    <path
       style="fill:none;stroke:#000000;stroke-width:1px;stroke-linecap:butt;stroke-linejoin:miter;stroke-opacity:1"
       d="m 347.5,777.36218 0,-20 50,0 0,260.00002"
       id="path3633"
       inkscape:connector-curvature="0" />
    <text
       xml:space="preserve"
       style="font-size:10px;font-style:normal;font-variant:normal;font-weight:normal;font-stretch:normal;line-height:125%;letter-spacing:0px;word-spacing:0px;fill:#000000;fill-opacity:1;stroke:none;font-family:LMRoman10;-inkscape-font-specification:LMRoman10"
       x="392.5"
       y="1027.3622"
       id="text3029-2-5-2-9-5-3-6-5-6-3-3-4-38-4-9"
       sodipodi:linespacing="125%"><tspan
         sodipodi:role="line"
         id="tspan3031-8-6-5-4-4-4-8-5-4-7-8-0-7-5-2"
         x="392.5"
         y="1027.3622"
         style="font-size:10px;font-style:normal;font-variant:normal;font-weight:normal;font-stretch:normal;font-family:LMRoman10;-inkscape-font-specification:LMRoman10">117</tspan></text>
    <path
       style="fill:none;stroke:#000000;stroke-width:1px;stroke-linecap:butt;stroke-linejoin:miter;stroke-opacity:1"
       d="m 372.5,757.36218 0,-20 45,0 0,280.00002"
       id="path3656"
       inkscape:connector-curvature="0" />
    <text
       xml:space="preserve"
       style="font-size:10px;font-style:normal;font-variant:normal;font-weight:normal;font-stretch:normal;line-height:125%;letter-spacing:0px;word-spacing:0px;fill:#000000;fill-opacity:1;stroke:none;font-family:LMRoman10;-inkscape-font-specification:LMRoman10"
       x="412.5"
       y="1027.3622"
       id="text3029-2-5-2-9-5-3-6-5-6-3-3-4-38-4-9-3"
       sodipodi:linespacing="125%"><tspan
         sodipodi:role="line"
         id="tspan3031-8-6-5-4-4-4-8-5-4-7-8-0-7-5-2-6"
         x="412.5"
         y="1027.3622"
         style="font-size:10px;font-style:normal;font-variant:normal;font-weight:normal;font-stretch:normal;font-family:LMRoman10;-inkscape-font-specification:LMRoman10">24</tspan></text>
    <path
       style="fill:none;stroke:#000000;stroke-width:1px;stroke-linecap:butt;stroke-linejoin:miter;stroke-opacity:1"
       d="m 722.5,817.36218 0,-20 85,0 0,220.00002"
       id="path3679"
       inkscape:connector-curvature="0" />
    <text
       xml:space="preserve"
       style="font-size:10px;font-style:normal;font-variant:normal;font-weight:normal;font-stretch:normal;line-height:125%;letter-spacing:0px;word-spacing:0px;fill:#000000;fill-opacity:1;stroke:none;font-family:LMRoman10;-inkscape-font-specification:LMRoman10"
       x="802.5"
       y="1027.3622"
       id="text3029-2-5-2-9-5-3-6-5-6-3-3-4-3-5-4-4-5-2-4-5-0-6-8-3-6-9"
       sodipodi:linespacing="125%"><tspan
         sodipodi:role="line"
         id="tspan3031-8-6-5-4-4-4-8-5-4-7-8-0-3-4-6-4-9-8-7-1-1-8-0-9-4-5"
         x="802.5"
         y="1027.3622"
         style="font-size:10px;font-style:normal;font-variant:normal;font-weight:normal;font-stretch:normal;font-family:LMRoman10;-inkscape-font-specification:LMRoman10">133</tspan></text>
    <path
       style="fill:none;stroke:#000000;stroke-width:1px;stroke-linecap:butt;stroke-linejoin:miter;stroke-opacity:1"
       d="m 762.5,797.36218 0,-20 65,0 0,240.00002"
       id="path3702"
       inkscape:connector-curvature="0" />
    <text
       xml:space="preserve"
       style="font-size:10px;font-style:normal;font-variant:normal;font-weight:normal;font-stretch:normal;line-height:125%;letter-spacing:0px;word-spacing:0px;fill:#000000;fill-opacity:1;stroke:none;font-family:LMRoman10;-inkscape-font-specification:LMRoman10"
       x="822.5"
       y="1027.3622"
       id="text3029-2-5-2-9-5-3-6-5-6-3-3-4-3-5-4-4-5-2-4-5-0-6-8-3-6-9-0"
       sodipodi:linespacing="125%"><tspan
         sodipodi:role="line"
         id="tspan3031-8-6-5-4-4-4-8-5-4-7-8-0-3-4-6-4-9-8-7-1-1-8-0-9-4-5-9"
         x="822.5"
         y="1027.3622"
         style="font-size:10px;font-style:normal;font-variant:normal;font-weight:normal;font-stretch:normal;font-family:LMRoman10;-inkscape-font-specification:LMRoman10">87</tspan></text>
    <path
       style="fill:none;stroke:#000000;stroke-width:1px;stroke-linecap:butt;stroke-linejoin:miter;stroke-opacity:1"
       d="m 392.5,737.36218 0,-20 400,0 0,60"
       id="path3725"
       inkscape:connector-curvature="0" />
    <path
       style="fill:none;stroke:#000000;stroke-width:1px;stroke-linecap:butt;stroke-linejoin:miter;stroke-opacity:1"
       d="m 592.5,717.36218 0,-20 255,0 0,320.00002"
       id="path3727"
       inkscape:connector-curvature="0" />
    <text
       xml:space="preserve"
       style="font-size:10px;font-style:normal;font-variant:normal;font-weight:normal;font-stretch:normal;line-height:125%;letter-spacing:0px;word-spacing:0px;fill:#000000;fill-opacity:1;stroke:none;font-family:LMRoman10;-inkscape-font-specification:LMRoman10"
       x="842.5"
       y="1027.3622"
       id="text3029-2-5-2-9-5-3-6-5-6-3-3-4-3-5-4-4-5-2-4-5-0-6-8-3-6-9-0-6"
       sodipodi:linespacing="125%"><tspan
         sodipodi:role="line"
         id="tspan3031-8-6-5-4-4-4-8-5-4-7-8-0-3-4-6-4-9-8-7-1-1-8-0-9-4-5-9-7"
         x="842.5"
         y="1027.3622"
         style="font-size:10px;font-style:normal;font-variant:normal;font-weight:normal;font-stretch:normal;font-family:LMRoman10;-inkscape-font-specification:LMRoman10">21</tspan></text>
    <path
       style="fill:none;stroke:#000000;stroke-width:1px;stroke-linecap:butt;stroke-linejoin:miter;stroke-opacity:1"
       d="m 717.5,697.36218 0,-20 150,0 0,340.00002"
       id="path3750"
       inkscape:connector-curvature="0" />
    <text
       xml:space="preserve"
       style="font-size:10px;font-style:normal;font-variant:normal;font-weight:normal;font-stretch:normal;line-height:125%;letter-spacing:0px;word-spacing:0px;fill:#000000;fill-opacity:1;stroke:none;font-family:LMRoman10;-inkscape-font-specification:LMRoman10"
       x="862.5"
       y="1027.3622"
       id="text3029-2-5-2-9-5-3-6-5-6-3-3-4-3-5-4-4-5-2-4-5-0-6-8-3-6-9-0-6-4"
       sodipodi:linespacing="125%"><tspan
         sodipodi:role="line"
         id="tspan3031-8-6-5-4-4-4-8-5-4-7-8-0-3-4-6-4-9-8-7-1-1-8-0-9-4-5-9-7-7"
         x="862.5"
         y="1027.3622"
         style="font-size:10px;font-style:normal;font-variant:normal;font-weight:normal;font-stretch:normal;font-family:LMRoman10;-inkscape-font-specification:LMRoman10">57</tspan></text>
    <path
       style="fill:none;stroke:#000000;stroke-width:1px;stroke-linecap:butt;stroke-linejoin:miter;stroke-opacity:1"
       d="m 792.5,677.36218 0,-20 95,0 0,360.00002"
       id="path3773"
       inkscape:connector-curvature="0" />
    <text
       xml:space="preserve"
       style="font-size:10px;font-style:normal;font-variant:normal;font-weight:normal;font-stretch:normal;line-height:125%;letter-spacing:0px;word-spacing:0px;fill:#000000;fill-opacity:1;stroke:none;font-family:LMRoman10;-inkscape-font-specification:LMRoman10"
       x="882.5"
       y="1027.3622"
       id="text3029-2-5-2-9-5-3-6-5-6-3-3-4-3-5-4-4-5-2-4-5-0-6-8-3-6-9-0-6-4-5"
       sodipodi:linespacing="125%"><tspan
         sodipodi:role="line"
         id="tspan3031-8-6-5-4-4-4-8-5-4-7-8-0-3-4-6-4-9-8-7-1-1-8-0-9-4-5-9-7-7-4"
         x="882.5"
         y="1027.3622"
         style="font-size:10px;font-style:normal;font-variant:normal;font-weight:normal;font-stretch:normal;font-family:LMRoman10;-inkscape-font-specification:LMRoman10">111</tspan></text>
    <path
       style="fill:none;stroke:#000000;stroke-width:1px;stroke-linecap:butt;stroke-linejoin:miter;stroke-opacity:1"
       d="m 837.5,657.36218 0,-20 70,0 0,380.00002"
       id="path3796"
       inkscape:connector-curvature="0" />
    <path
       style="fill:none;stroke:#000000;stroke-width:1px;stroke-linecap:butt;stroke-linejoin:miter;stroke-opacity:1"
       d="m 872.5,637.36218 0,-20"
       id="path3827"
       inkscape:connector-curvature="0" />
    <path
       sodipodi:type="arc"
       id="path3829"
       sodipodi:cx="877.5"
       sodipodi:cy="572.5"
       sodipodi:rx="2.5"
       sodipodi:ry="2.5"
       d="m 880,572.5 c 0,1.38071 -1.11929,2.5 -2.5,2.5 -1.38071,0 -2.5,-1.11929 -2.5,-2.5 0,-1.38071 1.11929,-2.5 2.5,-2.5 1.38071,0 2.5,1.11929 2.5,2.5 z"
       transform="translate(-5,37.36218)" />
    <path
       transform="translate(-5,27.36218)"
       sodipodi:type="arc"
       id="path3829-3"
       sodipodi:cx="877.5"
       sodipodi:cy="572.5"
       sodipodi:rx="2.5"
       sodipodi:ry="2.5"
       d="m 880,572.5 c 0,1.38071 -1.11929,2.5 -2.5,2.5 -1.38071,0 -2.5,-1.11929 -2.5,-2.5 0,-1.38071 1.11929,-2.5 2.5,-2.5 1.38071,0 2.5,1.11929 2.5,2.5 z" />
    <path
       transform="translate(-5,17.36218)"
       sodipodi:type="arc"
       id="path3829-34"
       sodipodi:cx="877.5"
       sodipodi:cy="572.5"
       sodipodi:rx="2.5"
       sodipodi:ry="2.5"
       d="m 880,572.5 c 0,1.38071 -1.11929,2.5 -2.5,2.5 -1.38071,0 -2.5,-1.11929 -2.5,-2.5 0,-1.38071 1.11929,-2.5 2.5,-2.5 1.38071,0 2.5,1.11929 2.5,2.5 z" />
    <path
       sodipodi:type="arc"
       id="path3829-9"
       sodipodi:cx="877.5"
       sodipodi:cy="572.5"
       sodipodi:rx="2.5"
       sodipodi:ry="2.5"
       d="m 880,572.5 c 0,1.38071 -1.11929,2.5 -2.5,2.5 -1.38071,0 -2.5,-1.11929 -2.5,-2.5 0,-1.38071 1.11929,-2.5 2.5,-2.5 1.38071,0 2.5,1.11929 2.5,2.5 z"
       transform="translate(30,472.36218)" />
    <path
       transform="translate(30,462.36218)"
       sodipodi:type="arc"
       id="path3829-3-0"
       sodipodi:cx="877.5"
       sodipodi:cy="572.5"
       sodipodi:rx="2.5"
       sodipodi:ry="2.5"
       d="m 880,572.5 c 0,1.38071 -1.11929,2.5 -2.5,2.5 -1.38071,0 -2.5,-1.11929 -2.5,-2.5 0,-1.38071 1.11929,-2.5 2.5,-2.5 1.38071,0 2.5,1.11929 2.5,2.5 z" />
    <path
       transform="translate(30,452.36218)"
       sodipodi:type="arc"
       id="path3829-34-6"
       sodipodi:cx="877.5"
       sodipodi:cy="572.5"
       sodipodi:rx="2.5"
       sodipodi:ry="2.5"
       d="m 880,572.5 c 0,1.38071 -1.11929,2.5 -2.5,2.5 -1.38071,0 -2.5,-1.11929 -2.5,-2.5 0,-1.38071 1.11929,-2.5 2.5,-2.5 1.38071,0 2.5,1.11929 2.5,2.5 z" />
    <path
       sodipodi:type="arc"
       id="path3829-9-2"
       sodipodi:cx="877.5"
       sodipodi:cy="572.5"
       sodipodi:rx="2.5"
       sodipodi:ry="2.5"
       d="m 880,572.5 c 0,1.38071 -1.11929,2.5 -2.5,2.5 -1.38071,0 -2.5,-1.11929 -2.5,-2.5 0,-1.38071 1.11929,-2.5 2.5,-2.5 1.38071,0 2.5,1.11929 2.5,2.5 z"
       transform="translate(-234.96429,472.36218)" />
    <path
       transform="translate(-234.96429,462.36218)"
       sodipodi:type="arc"
       id="path3829-3-0-7"
       sodipodi:cx="877.5"
       sodipodi:cy="572.5"
       sodipodi:rx="2.5"
       sodipodi:ry="2.5"
       d="m 880,572.5 c 0,1.38071 -1.11929,2.5 -2.5,2.5 -1.38071,0 -2.5,-1.11929 -2.5,-2.5 0,-1.38071 1.11929,-2.5 2.5,-2.5 1.38071,0 2.5,1.11929 2.5,2.5 z" />
    <path
       transform="translate(-234.96429,452.36218)"
       sodipodi:type="arc"
       id="path3829-34-6-0"
       sodipodi:cx="877.5"
       sodipodi:cy="572.5"
       sodipodi:rx="2.5"
       sodipodi:ry="2.5"
       d="m 880,572.5 c 0,1.38071 -1.11929,2.5 -2.5,2.5 -1.38071,0 -2.5,-1.11929 -2.5,-2.5 0,-1.38071 1.11929,-2.5 2.5,-2.5 1.38071,0 2.5,1.11929 2.5,2.5 z" />
    <path
       sodipodi:type="arc"
       id="path3829-9-1"
       sodipodi:cx="877.5"
       sodipodi:cy="572.5"
       sodipodi:rx="2.5"
       sodipodi:ry="2.5"
       d="m 880,572.5 c 0,1.38071 -1.11929,2.5 -2.5,2.5 -1.38071,0 -2.5,-1.11929 -2.5,-2.5 0,-1.38071 1.11929,-2.5 2.5,-2.5 1.38071,0 2.5,1.11929 2.5,2.5 z"
       transform="translate(-435.12119,472.36218)" />
    <path
       transform="translate(-435.12119,462.36218)"
       sodipodi:type="arc"
       id="path3829-3-0-9"
       sodipodi:cx="877.5"
       sodipodi:cy="572.5"
       sodipodi:rx="2.5"
       sodipodi:ry="2.5"
       d="m 880,572.5 c 0,1.38071 -1.11929,2.5 -2.5,2.5 -1.38071,0 -2.5,-1.11929 -2.5,-2.5 0,-1.38071 1.11929,-2.5 2.5,-2.5 1.38071,0 2.5,1.11929 2.5,2.5 z" />
    <path
       transform="translate(-435.12119,452.36218)"
       sodipodi:type="arc"
       id="path3829-34-6-1"
       sodipodi:cx="877.5"
       sodipodi:cy="572.5"
       sodipodi:rx="2.5"
       sodipodi:ry="2.5"
       d="m 880,572.5 c 0,1.38071 -1.11929,2.5 -2.5,2.5 -1.38071,0 -2.5,-1.11929 -2.5,-2.5 0,-1.38071 1.11929,-2.5 2.5,-2.5 1.38071,0 2.5,1.11929 2.5,2.5 z" />
    <path
       sodipodi:type="arc"
       id="path3829-9-26"
       sodipodi:cx="877.5"
       sodipodi:cy="572.5"
       sodipodi:rx="2.5"
       sodipodi:ry="2.5"
       d="m 880,572.5 c 0,1.38071 -1.11929,2.5 -2.5,2.5 -1.38071,0 -2.5,-1.11929 -2.5,-2.5 0,-1.38071 1.11929,-2.5 2.5,-2.5 1.38071,0 2.5,1.11929 2.5,2.5 z"
       transform="translate(-540.125,472.36218)" />
    <path
       transform="translate(-540.125,462.36218)"
       sodipodi:type="arc"
       id="path3829-3-0-93"
       sodipodi:cx="877.5"
       sodipodi:cy="572.5"
       sodipodi:rx="2.5"
       sodipodi:ry="2.5"
       d="m 880,572.5 c 0,1.38071 -1.11929,2.5 -2.5,2.5 -1.38071,0 -2.5,-1.11929 -2.5,-2.5 0,-1.38071 1.11929,-2.5 2.5,-2.5 1.38071,0 2.5,1.11929 2.5,2.5 z" />
    <path
       transform="translate(-540.125,452.36218)"
       sodipodi:type="arc"
       id="path3829-34-6-05"
       sodipodi:cx="877.5"
       sodipodi:cy="572.5"
       sodipodi:rx="2.5"
       sodipodi:ry="2.5"
       d="m 880,572.5 c 0,1.38071 -1.11929,2.5 -2.5,2.5 -1.38071,0 -2.5,-1.11929 -2.5,-2.5 0,-1.38071 1.11929,-2.5 2.5,-2.5 1.38071,0 2.5,1.11929 2.5,2.5 z" />
    <path
       sodipodi:type="arc"
       id="path3829-9-4"
       sodipodi:cx="877.5"
       sodipodi:cy="572.5"
       sodipodi:rx="2.5"
       sodipodi:ry="2.5"
       d="m 880,572.5 c 0,1.38071 -1.11929,2.5 -2.5,2.5 -1.38071,0 -2.5,-1.11929 -2.5,-2.5 0,-1.38071 1.11929,-2.5 2.5,-2.5 1.38071,0 2.5,1.11929 2.5,2.5 z"
       transform="translate(-579.96429,472.36218)" />
    <path
       transform="translate(-579.96429,462.36218)"
       sodipodi:type="arc"
       id="path3829-3-0-8"
       sodipodi:cx="877.5"
       sodipodi:cy="572.5"
       sodipodi:rx="2.5"
       sodipodi:ry="2.5"
       d="m 880,572.5 c 0,1.38071 -1.11929,2.5 -2.5,2.5 -1.38071,0 -2.5,-1.11929 -2.5,-2.5 0,-1.38071 1.11929,-2.5 2.5,-2.5 1.38071,0 2.5,1.11929 2.5,2.5 z" />
    <path
       transform="translate(-579.96429,452.36218)"
       sodipodi:type="arc"
       id="path3829-34-6-15"
       sodipodi:cx="877.5"
       sodipodi:cy="572.5"
       sodipodi:rx="2.5"
       sodipodi:ry="2.5"
       d="m 880,572.5 c 0,1.38071 -1.11929,2.5 -2.5,2.5 -1.38071,0 -2.5,-1.11929 -2.5,-2.5 0,-1.38071 1.11929,-2.5 2.5,-2.5 1.38071,0 2.5,1.11929 2.5,2.5 z" />
    <path
       sodipodi:type="arc"
       id="path3829-9-6"
       sodipodi:cx="877.5"
       sodipodi:cy="572.5"
       sodipodi:rx="2.5"
       sodipodi:ry="2.5"
       d="m 880,572.5 c 0,1.38071 -1.11929,2.5 -2.5,2.5 -1.38071,0 -2.5,-1.11929 -2.5,-2.5 0,-1.38071 1.11929,-2.5 2.5,-2.5 1.38071,0 2.5,1.11929 2.5,2.5 z"
       transform="translate(-720,472.36218)" />
    <path
       transform="translate(-720,462.36218)"
       sodipodi:type="arc"
       id="path3829-3-0-98"
       sodipodi:cx="877.5"
       sodipodi:cy="572.5"
       sodipodi:rx="2.5"
       sodipodi:ry="2.5"
       d="m 880,572.5 c 0,1.38071 -1.11929,2.5 -2.5,2.5 -1.38071,0 -2.5,-1.11929 -2.5,-2.5 0,-1.38071 1.11929,-2.5 2.5,-2.5 1.38071,0 2.5,1.11929 2.5,2.5 z" />
    <path
       transform="translate(-720,452.36218)"
       sodipodi:type="arc"
       id="path3829-34-6-9"
       sodipodi:cx="877.5"
       sodipodi:cy="572.5"
       sodipodi:rx="2.5"
       sodipodi:ry="2.5"
       d="m 880,572.5 c 0,1.38071 -1.11929,2.5 -2.5,2.5 -1.38071,0 -2.5,-1.11929 -2.5,-2.5 0,-1.38071 1.11929,-2.5 2.5,-2.5 1.38071,0 2.5,1.11929 2.5,2.5 z" />
    <path
       sodipodi:type="arc"
       id="path3829-9-14"
       sodipodi:cx="877.5"
       sodipodi:cy="572.5"
       sodipodi:rx="2.5"
       sodipodi:ry="2.5"
       d="m 880,572.5 c 0,1.38071 -1.11929,2.5 -2.5,2.5 -1.38071,0 -2.5,-1.11929 -2.5,-2.5 0,-1.38071 1.11929,-2.5 2.5,-2.5 1.38071,0 2.5,1.11929 2.5,2.5 z"
       transform="translate(-860,472.36218)" />
    <path
       transform="translate(-860,462.36218)"
       sodipodi:type="arc"
       id="path3829-3-0-77"
       sodipodi:cx="877.5"
       sodipodi:cy="572.5"
       sodipodi:rx="2.5"
       sodipodi:ry="2.5"
       d="m 880,572.5 c 0,1.38071 -1.11929,2.5 -2.5,2.5 -1.38071,0 -2.5,-1.11929 -2.5,-2.5 0,-1.38071 1.11929,-2.5 2.5,-2.5 1.38071,0 2.5,1.11929 2.5,2.5 z" />
    <path
       transform="translate(-860,452.36218)"
       sodipodi:type="arc"
       id="path3829-34-6-92"
       sodipodi:cx="877.5"
       sodipodi:cy="572.5"
       sodipodi:rx="2.5"
       sodipodi:ry="2.5"
       d="m 880,572.5 c 0,1.38071 -1.11929,2.5 -2.5,2.5 -1.38071,0 -2.5,-1.11929 -2.5,-2.5 0,-1.38071 1.11929,-2.5 2.5,-2.5 1.38071,0 2.5,1.11929 2.5,2.5 z" />
    <path
       sodipodi:type="arc"
       id="path3829-9-2-3"
       sodipodi:cx="877.5"
       sodipodi:cy="572.5"
       sodipodi:rx="2.5"
       sodipodi:ry="2.5"
       d="m 880,572.5 c 0,1.38071 -1.11929,2.5 -2.5,2.5 -1.38071,0 -2.5,-1.11929 -2.5,-2.5 0,-1.38071 1.11929,-2.5 2.5,-2.5 1.38071,0 2.5,1.11929 2.5,2.5 z"
       transform="translate(-129.93179,472.23591)" />
    <path
       transform="translate(-129.93179,462.23591)"
       sodipodi:type="arc"
       id="path3829-3-0-7-6"
       sodipodi:cx="877.5"
       sodipodi:cy="572.5"
       sodipodi:rx="2.5"
       sodipodi:ry="2.5"
       d="m 880,572.5 c 0,1.38071 -1.11929,2.5 -2.5,2.5 -1.38071,0 -2.5,-1.11929 -2.5,-2.5 0,-1.38071 1.11929,-2.5 2.5,-2.5 1.38071,0 2.5,1.11929 2.5,2.5 z" />
    <path
       transform="translate(-129.93179,452.23591)"
       sodipodi:type="arc"
       id="path3829-34-6-0-0"
       sodipodi:cx="877.5"
       sodipodi:cy="572.5"
       sodipodi:rx="2.5"
       sodipodi:ry="2.5"
       d="m 880,572.5 c 0,1.38071 -1.11929,2.5 -2.5,2.5 -1.38071,0 -2.5,-1.11929 -2.5,-2.5 0,-1.38071 1.11929,-2.5 2.5,-2.5 1.38071,0 2.5,1.11929 2.5,2.5 z" />
    <path
       sodipodi:type="arc"
       id="path3829-9-2-8"
       sodipodi:cx="877.5"
       sodipodi:cy="572.5"
       sodipodi:rx="2.5"
       sodipodi:ry="2.5"
       d="m 880,572.5 c 0,1.38071 -1.11929,2.5 -2.5,2.5 -1.38071,0 -2.5,-1.11929 -2.5,-2.5 0,-1.38071 1.11929,-2.5 2.5,-2.5 1.38071,0 2.5,1.11929 2.5,2.5 z"
       transform="translate(-150,472.36218)" />
    <path
       transform="translate(-150,462.36218)"
       sodipodi:type="arc"
       id="path3829-3-0-7-3"
       sodipodi:cx="877.5"
       sodipodi:cy="572.5"
       sodipodi:rx="2.5"
       sodipodi:ry="2.5"
       d="m 880,572.5 c 0,1.38071 -1.11929,2.5 -2.5,2.5 -1.38071,0 -2.5,-1.11929 -2.5,-2.5 0,-1.38071 1.11929,-2.5 2.5,-2.5 1.38071,0 2.5,1.11929 2.5,2.5 z" />
    <path
       transform="translate(-150,452.36218)"
       sodipodi:type="arc"
       id="path3829-34-6-0-4"
       sodipodi:cx="877.5"
       sodipodi:cy="572.5"
       sodipodi:rx="2.5"
       sodipodi:ry="2.5"
       d="m 880,572.5 c 0,1.38071 -1.11929,2.5 -2.5,2.5 -1.38071,0 -2.5,-1.11929 -2.5,-2.5 0,-1.38071 1.11929,-2.5 2.5,-2.5 1.38071,0 2.5,1.11929 2.5,2.5 z" />
  </g>
</svg>
